HIERARCHY
ROOT Root
{
	OFFSET 0.00 0.00 0.00
	CHANNELS 6 Xposition Yposition Zposition Xrotation Yrotation Zrotation
	JOINT L_Femur
	{
		OFFSET 2.78527 0.00000 0.00000
		CHANNELS 3 Xrotation Yrotation Zrotation
		JOINT L_Tibia
		{
			OFFSET 0.00000 -16.41095 0.00000
			CHANNELS 3 Xrotation Yrotation Zrotation
			JOINT L_Foot
			{
				OFFSET 0.00000 -14.21163 0.00000
				CHANNELS 3 Xrotation Yrotation Zrotation
				JOINT L_Toe
				{
					OFFSET 0.00000 -1.60827 6.00215
					CHANNELS 3 Xrotation Yrotation Zrotation
					End Site
					{
						OFFSET 0.00000 0.00000 2.95275
					}
				}
			}
		}
	}
	JOINT R_Femur
	{
		OFFSET -2.78527 0.00000 0.00000
		CHANNELS 3 Xrotation Yrotation Zrotation
		JOINT R_Tibia
		{
			OFFSET 0.00000 -16.41095 0.00000
			CHANNELS 3 Xrotation Yrotation Zrotation
			JOINT R_Foot
			{
				OFFSET 0.00000 -14.21163 0.00000
				CHANNELS 3 Xrotation Yrotation Zrotation
				JOINT R_Toe
				{
					OFFSET 0.00000 -1.60827 6.00215
					CHANNELS 3 Xrotation Yrotation Zrotation
					End Site
					{
						OFFSET 0.00000 0.00000 2.95275
					}
				}
			}
		}
	}
	JOINT LowerBack
	{
		OFFSET 0.00000 0.03937 0.00000
		CHANNELS 3 Xrotation Yrotation Zrotation
		JOINT Thorax
		{
			OFFSET 0.00000 7.01329 0.00000
			CHANNELS 3 Xrotation Yrotation Zrotation
			JOINT Neck
			{
				OFFSET 0.00000 7.25825 0.00000
				CHANNELS 3 Xrotation Yrotation Zrotation
				JOINT Head
				{
					OFFSET 0.00000 5.63334 0.00000
					CHANNELS 3 Xrotation Yrotation Zrotation
					End Site
					{
						OFFSET 0.00000 4.52755 0.00000
					}
				}
			}
			JOINT L_Collar
			{
				OFFSET 0.00000 7.25825 0.00000
				CHANNELS 3 Xrotation Yrotation Zrotation
				JOINT L_Humerus
				{
					OFFSET 6.91821 -0.00003 0.00000
					CHANNELS 3 Xrotation Yrotation Zrotation
					JOINT L_Elbow
					{
						OFFSET 10.34006 -0.00004 0.00000
						CHANNELS 3 Xrotation Yrotation Zrotation
						JOINT L_Wrist
						{
							OFFSET 7.25554 -0.00003 0.00000
							CHANNELS 3 Xrotation Yrotation Zrotation
							JOINT L_Thumb
							{
								OFFSET 0.00000 0.00000 0.00000
								CHANNELS 3 Xrotation Yrotation Zrotation
								End Site
								{
									OFFSET 0.00000 0.00000 3.93700
								}
							}
							JOINT L_Wrist_End
							{
								OFFSET 3.93700 -0.00001 0.00000
								CHANNELS 3 Xrotation Yrotation Zrotation
							}
						}
					}
				}
			}
			JOINT R_Collar
			{
				OFFSET 0.00000 7.25825 0.00000
				CHANNELS 3 Xrotation Yrotation Zrotation
				JOINT R_Humerus
				{
					OFFSET -6.91821 -0.00003 0.00000
					CHANNELS 3 Xrotation Yrotation Zrotation
					JOINT R_Elbow
					{
						OFFSET -10.34006 -0.00004 0.00000
						CHANNELS 3 Xrotation Yrotation Zrotation
						JOINT R_Wrist
						{
							OFFSET -7.25554 -0.00003 0.00000
							CHANNELS 3 Xrotation Yrotation Zrotation
							JOINT R_Thumb
							{
								OFFSET 0.00000 0.00000 0.00000
								CHANNELS 3 Xrotation Yrotation Zrotation
								End Site
								{
									OFFSET 0.00000 0.00000 3.93700
								}
							}
							JOINT R_Wrist_End
							{
								OFFSET -5.39369 -0.00002 0.00000
								CHANNELS 3 Xrotation Yrotation Zrotation
							}
						}
					}
				}
			}
		}
	}
}
MOTION
Frames: 9
Frame Time: 0.033332
 1.1841 32.2847 2.1979 12.8253 -31.2617 -5.7060 -59.2448 45.4607 49.3866 29.5471 -0.0000 0.0000 -10.6107 -2.8570 -4.9832 -2.9146 -0.0000 0.0000 -7.8612 -4.8676 1.5591 6.2721 0.0000 0.0000 -14.3194 23.3067 11.3695 -7.8519 0.0000 0.0000 -4.5161 -2.6085 -11.3547 1.5762 -2.6724 11.1263 4.2795 -34.8850 12.0696 -22.6399 65.4746 8.7888 -0.0521 32.3299 22.7259 -5.3568 4.6872 -43.1574 -0.0001 -19.3046 -0.0000 -15.2997 -1.7458 -1.5731 -0.0000 0.0000 -0.0000 -0.0000 0.0000 -0.0000 3.2566 -13.9187 -17.4140 -39.6598 -29.3433 41.2816 -0.0001 16.9019 0.0000 4.6434 2.1546 -13.8695 -0.0000 0.0000 -0.0000 -0.0000 0.0000 -0.0000
 1.4495 32.2906 2.9267 10.3937 -29.5022 -7.7988 -52.9645 42.3063 45.7684 31.5376 -0.0000 0.0000 -12.5002 -1.3139 -5.3028 -2.3892 0.0000 0.0000 -8.7124 -12.8780 -0.9125 14.5474 -0.0000 0.0000 -18.6235 29.8118 18.7884 -7.9908 0.0000 -0.0000 -4.5026 -1.7203 -11.7756 0.8658 -1.7019 9.5633 3.5317 -34.7422 11.7445 -19.5334 63.9992 8.8016 -0.6167 33.5251 22.4756 -7.5189 9.5631 -44.2201 -0.0001 -19.7642 -0.0000 -16.6271 -2.2624 -2.1991 -0.0000 -0.0000 0.0000 -0.0000 -0.0000 0.0000 2.4782 -12.6449 -18.2574 -42.5898 -31.2399 41.6185 -0.0001 16.5482 0.0000 4.4416 2.1862 -14.0524 -0.0000 0.0000 -0.0000 -0.0000 0.0000 -0.0000
 1.8065 32.2699 3.7881 6.9560 -27.2672 -9.9791 -44.5704 38.8666 40.7783 32.8187 -0.0000 0.0000 -14.7438 2.0730 -5.0337 -2.3278 -0.0000 0.0000 -10.8482 -14.7840 -5.5114 26.7283 -0.0000 0.0000 -17.2304 31.0325 25.0132 -8.3407 0.0000 -0.0000 -4.2221 -0.9323 -11.7597 0.3319 -0.7518 8.4914 2.3703 -34.8743 10.4967 -13.6531 63.0609 5.9409 -0.5322 34.7012 21.0777 -8.7607 14.3844 -44.3935 -0.0001 -19.6945 -0.0000 -18.7635 -2.6312 -3.2586 -0.0000 0.0000 -0.0000 -0.0000 0.0000 -0.0000 1.7166 -11.5670 -18.9923 -43.7104 -29.9893 42.4207 -0.0001 17.5507 0.0000 4.2324 2.3855 -13.8141 -0.0000 0.0000 -0.0000 -0.0000 0.0000 -0.0000
 2.2074 32.2611 4.7245 4.0641 -23.1010 -12.2532 -37.9151 34.9934 36.9622 34.3628 -0.0000 0.0000 -17.0341 3.2428 -4.4955 -2.2270 0.0000 0.0000 -11.8027 -15.0659 -10.7804 36.9387 -0.0000 0.0000 -19.5318 28.8209 23.6328 -8.5080 0.0000 -0.0000 -4.4991 -0.2511 -11.5743 0.4981 -0.1077 8.9234 1.8998 -35.0641 9.3476 -8.6752 62.2825 2.3000 -0.5201 35.8429 19.9200 -9.1430 17.4424 -45.3704 -0.0001 -20.0334 -0.0000 -19.2664 -3.1815 -3.0792 -0.0000 0.0000 -0.0000 -0.0000 0.0000 -0.0000 1.8836 -10.9574 -18.8666 -45.0688 -27.1221 41.5979 -0.0001 19.8000 0.0000 3.6525 3.1978 -14.0444 -0.0000 0.0000 -0.0000 -0.0000 0.0000 -0.0000
 2.7358 32.3059 5.6165 2.5895 -17.9583 -13.7378 -33.0670 31.7960 33.7080 34.9127 -0.0000 0.0000 -18.8172 2.4836 -3.8991 -2.1053 0.0000 0.0000 -12.3250 -15.2272 -16.5413 39.6494 -0.0000 0.0000 -18.4289 27.2021 20.6665 -8.5603 0.0000 0.0000 -4.7571 0.2582 -11.0777 -0.2085 0.3269 9.4576 1.3749 -35.2665 8.4395 -4.1485 61.8201 -0.5289 -1.1736 36.8529 19.2579 -9.6924 19.9013 -45.7252 -0.0001 -20.8715 -0.0000 -20.4477 -3.5054 -3.9781 -0.0000 0.0000 -0.0000 -0.0000 0.0000 -0.0000 2.0496 -10.3343 -18.9264 -44.2308 -24.9024 41.0491 -0.0001 24.0027 0.0000 1.4130 4.7843 -14.8469 -0.0000 0.0000 -0.0000 -0.0000 0.0000 -0.0000
 3.3673 32.4126 6.3576 1.1187 -13.6237 -14.3608 -28.0373 29.5876 30.2062 34.3498 -0.0000 0.0000 -19.7242 2.0175 -2.9819 -2.1654 0.0000 0.0000 -13.0099 -13.9958 -22.4942 36.9817 -0.0000 0.0000 -10.3673 24.9612 14.2264 -8.5719 0.0000 0.0000 -5.1239 1.1066 -10.3456 0.0661 1.0293 9.2469 0.4988 -35.0122 7.8973 -0.7416 62.1602 -2.7936 -1.4187 37.7514 18.2629 -10.2148 22.6990 -45.4567 -0.0001 -23.2011 -0.0000 -21.4300 -4.1443 -3.8154 -0.0000 0.0000 -0.0000 -0.0000 0.0000 -0.0000 1.9429 -9.6609 -19.1043 -45.5290 -24.1245 41.6356 -0.0001 28.0540 0.0000 -0.3953 6.0910 -15.0711 -0.0000 -0.0000 0.0000 -0.0000 -0.0000 0.0000
 3.9904 32.5285 6.9036 -0.4779 -10.2682 -14.8188 -23.7339 28.1666 27.5779 33.5418 -0.0000 0.0000 -20.1644 1.4936 -1.6336 -2.2155 0.0000 0.0000 -13.7455 -11.6078 -27.4407 31.5756 -0.0000 -0.0000 -6.7999 19.3754 9.5920 -8.3448 0.0000 -0.0000 -5.4762 2.0353 -9.3554 0.8024 1.9408 9.0419 -0.1234 -34.1405 7.3429 1.7102 63.2554 -4.6119 -1.2708 38.4704 17.8972 -10.6276 25.5348 -45.7543 -0.0001 -25.6074 -0.0000 -22.1733 -5.3135 -2.4572 -0.0000 -0.0000 0.0000 -0.0000 -0.0000 0.0000 2.0164 -8.5731 -19.3847 -48.4372 -22.7966 43.0350 -0.0001 30.7199 0.0000 -0.4163 6.3510 -14.2428 -0.0000 0.0000 -0.0000 -0.0000 0.0000 -0.0000
 4.6058 32.6215 7.3278 -1.5880 -6.4048 -14.7641 -19.7265 26.2380 24.5445 32.4049 -0.0000 0.0000 -20.3527 1.0747 -0.3960 -2.2563 0.0000 0.0000 -15.9462 -12.2970 -32.4466 24.0218 0.0000 0.0000 -7.9868 12.2090 3.8780 -8.1768 0.0000 0.0000 -5.7103 2.5939 -8.7970 1.2158 2.5423 9.3838 -0.3802 -33.0906 7.2230 6.5984 64.3943 -8.9916 -1.4274 38.6740 17.8261 -11.6157 27.6938 -45.6803 -0.0001 -27.0878 -0.0000 -24.9213 -6.0701 -2.4374 -0.0000 0.0000 -0.0000 -0.0000 0.0000 -0.0000 1.6443 -7.2702 -19.6713 -50.8611 -20.2232 44.6137 -0.0001 33.2597 0.0000 -1.8217 7.3262 -14.1567 -0.0000 -0.0000 0.0000 -0.0000 -0.0000 0.0000
 5.2437 32.6761 7.6275 -2.1791 -1.4259 -13.8572 -15.6605 22.6607 20.3415 31.1408 -0.0000 0.0000 -20.2977 1.1803 1.0736 -2.4335 -0.0000 -0.0000 -20.0394 -15.5288 -37.7958 14.8608 -0.0000 0.0000 -5.1807 4.5557 -1.3891 -8.2650 0.0000 -0.0000 -5.5651 2.8657 -8.5488 1.1390 2.9218 9.4042 -0.5892 -32.3952 7.3193 13.4239 64.7611 -14.6470 -1.6659 38.6045 17.6007 -13.8232 27.6159 -45.1437 -0.0001 -28.3201 -0.0000 -25.4995 -6.0630 -2.7627 -0.0000 0.0000 -0.0000 -0.0000 0.0000 -0.0000 1.4982 -6.6628 -19.8711 -53.2686 -17.1066 46.4379 -0.0002 36.3759 0.0001 -2.5771 8.1050 -13.8797 -0.0000 0.0000 -0.0000 -0.0000 0.0000 -0.0000
